<svg width="512" height="512" viewBox="0 0 512 512" fill="none" xmlns="http://www.w3.org/2000/svg">
  <rect width="512" height="512" rx="36" fill="#08111E"/>
  <rect x="34" y="34" width="444" height="444" rx="28" fill="#0F172A" stroke="#1E293B" stroke-width="2"/>
  <rect x="72" y="72" width="108" height="108" rx="18" stroke="#5EEAD4" stroke-width="20"/>
  <rect x="332" y="72" width="108" height="108" rx="18" stroke="#5EEAD4" stroke-width="20"/>
  <rect x="72" y="332" width="108" height="108" rx="18" stroke="#5EEAD4" stroke-width="20"/>
  <rect x="224" y="72" width="36" height="36" rx="6" fill="#F8FAFC"/>
  <rect x="278" y="72" width="36" height="36" rx="6" fill="#5EEAD4"/>
  <rect x="224" y="126" width="90" height="36" rx="6" fill="#F8FAFC"/>
  <rect x="224" y="224" width="36" height="36" rx="6" fill="#5EEAD4"/>
  <rect x="278" y="224" width="90" height="36" rx="6" fill="#F8FAFC"/>
  <rect x="224" y="278" width="36" height="90" rx="6" fill="#F8FAFC"/>
  <rect x="278" y="278" width="36" height="36" rx="6" fill="#5EEAD4"/>
  <rect x="332" y="224" width="36" height="144" rx="6" fill="#5EEAD4"/>
  <rect x="386" y="224" width="54" height="36" rx="6" fill="#F8FAFC"/>
  <rect x="386" y="278" width="54" height="90" rx="6" fill="#F8FAFC"/>
  <rect x="224" y="386" width="216" height="36" rx="6" fill="#5EEAD4"/>
  <text x="256" y="466" text-anchor="middle" fill="#CBD5E1" font-size="24" font-family="Arial, sans-serif">Kintify VeriKernel QR placeholder</text>
</svg>
